<svg width="32" height="32" fill="none" xmlns="http://www.w3.org/2000/svg"><path d="M16.67 16.98l.065-.065c.041-.042.087-.087.132-.129l.09-.087.267-.264.366-.355.312-.31.293-.29.304-.302.28-.277.393-.386c.074-.074.151-.145.228-.216.142-.129.29-.254.438-.376.139-.11.28-.216.425-.32.203-.144.412-.276.624-.405a8.642 8.642 0 011.642-.756c.061-.019.122-.042.187-.06a15.434 15.434 0 00-2.919-5.857A1.412 1.412 0 0018.7 6H7.42a.212.212 0 00-.125.383 32.916 32.916 0 019.349 10.625l.025-.029z" fill="#00D6B9"/><path d="M12.188 26.907c5.824 0 10.899-3.215 13.544-7.965.093-.167.183-.335.27-.505a6.22 6.22 0 01-.443.73c-.058.08-.116.161-.177.242a7.23 7.23 0 01-.431.502 5.51 5.51 0 01-.676.605c-.1.077-.203.151-.306.219-.064.045-.132.086-.2.128a5.776 5.776 0 01-1.062.515 5.66 5.66 0 01-1.142.292 6.753 6.753 0 01-.511.058 6.507 6.507 0 01-1.612-.087 5.929 5.929 0 01-.396-.083c-.07-.017-.138-.036-.21-.055a38.384 38.384 0 01-.578-.161c-.097-.03-.194-.055-.287-.084a15.723 15.723 0 01-.428-.132 14.188 14.188 0 01-.347-.112c-.11-.036-.222-.071-.332-.11l-.225-.077-.274-.097-.193-.07a13.066 13.066 0 01-.383-.142l-.222-.084c-.1-.038-.196-.077-.296-.116-.1-.038-.209-.083-.312-.125l-.203-.084-.25-.103-.194-.08-.2-.085-.174-.077-.158-.071-.16-.074-.165-.078-.21-.096-.218-.103c-.077-.039-.154-.074-.232-.113l-.195-.097a32.568 32.568 0 01-9.233-6.883.213.213 0 00-.367.145l.006 9.953v.807a1.403 1.403 0 00.622 1.17 15.343 15.343 0 008.56 2.583z" fill="#3370FF"/><path d="M29.304 12.876a8.903 8.903 0 00-8.415.316 7.96 7.96 0 00-.624.405 8.24 8.24 0 00-1.091.91l-.393.387-.28.277-.306.302-.293.29-.312.309-.364.36-.267.265-.09.087a5.243 5.243 0 01-.132.128l-.064.065-.1.093-.113.103c-.97.89-2.048 1.655-3.21 2.274l.209.097.164.077.161.075.158.07.173.077.2.087.193.08.251.104.203.084.312.125.296.116.222.084c.129.048.258.093.383.141l.193.071.274.097.225.077c.11.035.219.074.331.11.113.035.232.073.348.112.141.045.286.087.428.132a37.722 37.722 0 00.866.245l.208.054c.133.03.265.056.396.082a6.638 6.638 0 001.065.103 6.215 6.215 0 001.06-.074 5.742 5.742 0 001.544-.457 5.81 5.81 0 00.66-.35c.07-.042.135-.087.199-.13a6.493 6.493 0 00.557-.421 6.17 6.17 0 001.03-1.146c.161-.232.308-.474.44-.724l.152-.299 1.345-2.68.016-.031a8.791 8.791 0 011.792-2.559z" fill="#133C9A"/></svg>