<?xml version="1.0" standalone="no"?><!DOCTYPE svg PUBLIC "-//W3C//DTD SVG 1.1//EN" "http://www.w3.org/Graphics/SVG/1.1/DTD/svg11.dtd"><svg t="1614856075656" class="icon" viewBox="0 0 1024 1024" version="1.1" xmlns="http://www.w3.org/2000/svg" p-id="966" xmlns:xlink="http://www.w3.org/1999/xlink" width="200" height="200"><defs><style type="text/css"></style></defs><path d="M512 59.497c-282.77 0-512 190.689-512 425.915C0 613.82 68.314 728.955 176.355 807.043l-0.413 115.074c0 32.243 14.692 48.576 39.779 40.22l154.716-67.506c44.96 10.738 92.453 16.495 141.563 16.495 282.77 0 512-190.689 512-425.915S794.77 59.497 512 59.497zM257.629 558.603c-40.422 0-73.191-32.769-73.191-73.191 0-40.422 32.769-73.191 73.191-73.191s73.191 32.769 73.191 73.191c0.001 40.422-32.768 73.191-73.191 73.191z m254.371 0c-40.422 0-73.191-32.769-73.191-73.191 0-40.422 32.769-73.191 73.191-73.191s73.191 32.769 73.191 73.191c0 40.422-32.769 73.191-73.191 73.191z m254.371 0c-40.422 0-73.191-32.769-73.191-73.191 0-40.422 32.769-73.191 73.191-73.191s73.191 32.769 73.191 73.191c0 40.422-32.769 73.191-73.191 73.191z" fill="#ffffff" p-id="967"></path></svg>