<?xml version="1.0" standalone="no"?><!DOCTYPE svg PUBLIC "-//W3C//DTD SVG 1.1//EN" "http://www.w3.org/Graphics/SVG/1.1/DTD/svg11.dtd"><svg t="1611144597807" class="icon" viewBox="0 0 1024 1024" version="1.1" xmlns="http://www.w3.org/2000/svg" p-id="2575" xmlns:xlink="http://www.w3.org/1999/xlink" width="200" height="200"><defs><style type="text/css"></style></defs><path d="M199.104 0h625.792A199.36 199.36 0 0 1 1024 199.104v625.792A199.36 199.36 0 0 1 824.896 1024H199.04A199.36 199.36 0 0 1 0 824.896V199.04A199.36 199.36 0 0 1 199.104 0z" fill="#170B1A" p-id="2576"></path><path d="M511.424 302.08C512 237.824 511.424 173.504 512 109.248h131.392c-0.576 11.328 1.152 22.72 2.88 33.536H549.568v522.24a124.8 124.8 0 0 1-16 63.744 107.84 107.84 0 0 1-83.008 52.864 111.36 111.36 0 0 1-63.168-13.056 108.416 108.416 0 0 1-36.928-33.024 108.48 108.48 0 0 0 109.76-3.968C491.52 712.32 512 675.84 512 638.272c-0.576-112-0.576-224.128-0.576-336.192z m216.768-36.992c18.176 11.392 38.656 20.48 59.712 25.024 12.544 2.88 25.024 4.032 38.144 4.032v29.568a187.328 187.328 0 0 1-97.92-58.624z" fill="#25F4EE" p-id="2577"></path><path d="M274.752 428.928a238.016 238.016 0 0 1 159.36-33.536v31.296a249.472 249.472 0 0 0-141.632 48.896 237.12 237.12 0 0 0-71.744 90.432 243.392 243.392 0 0 0-23.36 108.16c0 40.96 11.392 80.768 30.72 116.608 9.152 16.448 19.392 32.384 33.024 45.44a233.408 233.408 0 0 1-68.288-75.072A246.272 246.272 0 0 1 159.36 629.76a250.112 250.112 0 0 1 35.84-120.064 240.32 240.32 0 0 1 79.616-80.768z" fill="#25F4EE" p-id="2578"></path><path d="M549.568 142.784h97.28c3.392 18.752 10.24 36.416 18.752 53.504 13.632 26.176 33.024 49.472 58.048 64.832a13.312 13.312 0 0 1 3.968 3.968c25.6 29.056 60.288 50.048 98.432 58.624 0.576 34.112 0 68.8 0 102.976a308.16 308.16 0 0 1-180.928-57.472c0 81.92 0 163.84 0.576 245.76 0 10.816 0.576 21.632 0 32.96a268.8 268.8 0 0 1-35.264 113.792 247.424 247.424 0 0 1-68.288 77.44 219.264 219.264 0 0 1-124.608 42.624 270.208 270.208 0 0 1-67.648-5.76 243.584 243.584 0 0 1-87.04-38.08l-1.728-1.664a202.496 202.496 0 0 1-33.024-45.504 244.352 244.352 0 0 1-30.72-116.672 245.12 245.12 0 0 1 23.36-108.096 242.56 242.56 0 0 1 71.68-90.432 249.472 249.472 0 0 1 141.632-48.896c0.64 13.056 0 26.176 0.64 38.656v66.56a94.144 94.144 0 0 0-51.84-1.728c-20.48 4.608-39.808 13.696-55.68 27.328a101.824 101.824 0 0 0-23.936 30.144c-10.24 19.328-13.696 42.112-11.392 63.744 2.304 21.056 11.392 41.536 25.024 57.472 9.088 11.328 21.056 19.84 33.024 27.84 9.6 13.632 22.144 25.024 36.928 33.024 19.392 10.24 41.6 14.72 63.168 13.056a106.432 106.432 0 0 0 83.072-52.928 124.8 124.8 0 0 0 15.936-63.68c1.152-175.232 0.576-349.312 0.576-523.392z" fill="#FFFFFF" p-id="2579"></path><path d="M646.848 142.784c11.328 0.576 22.72 0 34.688 0 0 38.144 11.968 76.224 34.112 107.52 2.88 3.968 5.76 7.424 8.576 10.816a159.68 159.68 0 0 1-58.048-64.832 214.208 214.208 0 0 1-19.328-53.504z m179.2 180.928c12.48 2.816 24.96 3.968 38.08 3.968v132.544a311.04 311.04 0 0 1-182.592-59.136v262.784c0.576 19.904-1.152 39.872-5.696 59.2A244.288 244.288 0 0 1 579.136 870.4a236.8 236.8 0 0 1-86.464 38.656c-37.568 8.576-76.8 8-113.792-1.664a239.744 239.744 0 0 1-115.456-69.44c26.112 18.816 55.68 31.36 87.04 38.144 22.144 5.12 44.928 6.272 67.648 5.696a219.264 219.264 0 0 0 124.608-42.688 254.72 254.72 0 0 0 68.288-77.376 268.8 268.8 0 0 0 35.2-113.792 319.104 319.104 0 0 0 0-32.96c-0.512-81.92-0.512-163.84-0.512-245.76a308.16 308.16 0 0 0 180.928 57.472c-0.64-34.176 0-68.864-0.64-103.04z" fill="#FE2C55" p-id="2580"></path><path d="M434.624 426.112c12.544 0 25.6 0.576 38.144 2.24v136a103.872 103.872 0 0 0-57.472-2.304 110.528 110.528 0 0 0-78.528 70.016 110.848 110.848 0 0 0 14.208 102.912 119.552 119.552 0 0 1-32.96-27.84 107.264 107.264 0 0 1-25.024-57.472 112.128 112.128 0 0 1 11.392-63.68c5.632-11.392 14.208-21.632 23.872-30.208A138.24 138.24 0 0 1 384 528.512c17.088-3.968 35.264-3.968 51.776 1.664v-66.56c-1.152-11.328-0.576-24.448-1.152-37.504z" fill="#FE2C55" p-id="2581"></path></svg>