<svg xmlns="http://www.w3.org/2000/svg" fill="none" viewBox="0 0 10 10" id="icon-colored-addon-link"><rect width="10" height="10" rx="1" fill="#09C7E0"></rect><path fill-rule="evenodd" clip-rule="evenodd" d="M4.418 7.743a9.152 9.152 0 01-1.45-1.363c-.424-.5-.809-1-1.153-1.5a.839.839 0 01-.063-.845c.15-.306.292-.58.427-.821.13-.232.269-.464.419-.698a.85.85 0 01.672-.388 31.172 31.172 0 013.331-.002.85.85 0 01.676.396 19.96 19.96 0 01.834 1.499c.14.28.113.612-.07.866-.331.46-.724.958-1.177 1.493-.441.52-.91.973-1.41 1.359a.852.852 0 01-1.036.004zm-.808-3.97a.423.423 0 00-.397.421v.062c0 .221.172.405.394.42a19.018 19.018 0 002.605.001.423.423 0 00.394-.42v-.064a.423.423 0 00-.398-.42 20.507 20.507 0 00-2.598 0z" fill="#fff"></path></svg>