<svg width="1em" height="1em" viewBox="0 0 22 22" xmlns="http://www.w3.org/2000/svg" class="icon"><g fill="none" fill-rule="evenodd"><rect fill="#F5F7F9" width="22" height="22" rx="4"></rect><path d="M11.783 3.648c-.282-.864-1.508-.864-1.79 0L8.565 8.034H3.942c-.91 0-1.29 1.163-.552 1.697l3.74 2.71-1.43 4.385c-.28.865.711 1.584 1.448 1.05l3.74-2.71v-3.561c0-.396.321-.717.717-.717h5.185l1.596-1.157c.738-.534.359-1.697-.552-1.697H13.21l-1.428-4.386z" fill="#00B157"></path><path d="M12.322 12.68c0-.197.16-.358.359-.358h5.736c.198 0 .359.16.359.359v1.434c0 .198-.16.358-.359.358h-5.736a.359.359 0 01-.359-.358V12.68zM12.322 16.266c0-.198.16-.358.359-.358h5.736c.198 0 .359.16.359.358V17.7c0 .198-.16.359-.359.359h-5.736a.359.359 0 01-.359-.359v-1.434z" fill="#27AD60" fill-rule="nonzero"></path></g></svg>