<?xml version="1.0" encoding="UTF-8"?>
<svg width="32px" height="32px" viewBox="0 0 32 32" version="1.1" xmlns="http://www.w3.org/2000/svg" xmlns:xlink="http://www.w3.org/1999/xlink">
    <title>icon_热搜榜1</title>
    <defs>
        <path d="M1.18284015,0 L22.0898872,0 C22.625436,0 23.0595841,0.434148121 23.0595841,0.969696968 C23.0595841,1.03355344 23.0532765,1.09725377 23.0407533,1.15987019 L23.030303,1.21212121 C22.8893437,1.91691802 22.2705074,2.42424243 21.5517528,2.42424243 L1.72097443,2.42424243 C1.00221989,2.42424243 0.383383604,1.91691802 0.242424243,1.21212121 L0.231974039,1.15987019 C0.126944268,0.63472134 0.467518075,0.12386063 0.992666922,0.01883086 C1.05528334,0.00630757571 1.11898368,0 1.18284015,0 Z" id="path-1"></path>
        <path d="M1.18284015,0 L22.0898872,0 C22.625436,0 23.0595841,0.434148121 23.0595841,0.969696968 C23.0595841,1.03355344 23.0532765,1.09725377 23.0407533,1.15987019 L23.030303,1.21212121 C22.8893437,1.91691802 22.2705074,2.42424243 21.5517528,2.42424243 L1.72097443,2.42424243 C1.00221989,2.42424243 0.383383604,1.91691802 0.242424243,1.21212121 L0.231974039,1.15987019 C0.126944268,0.63472134 0.467518075,0.12386063 0.992666922,0.01883086 C1.05528334,0.00630757571 1.11898368,0 1.18284015,0 Z" id="path-3"></path>
        <linearGradient x1="50%" y1="0%" x2="88.28125%" y2="80.2521069%" id="linearGradient-5">
            <stop stop-color="#FED777" offset="0%"></stop>
            <stop stop-color="#DAA650" offset="100%"></stop>
        </linearGradient>
        <linearGradient x1="39.8292096%" y1="32.6694364%" x2="91.9240382%" y2="78.125%" id="linearGradient-6">
            <stop stop-color="#FED777" offset="0%"></stop>
            <stop stop-color="#DAA650" offset="100%"></stop>
        </linearGradient>
        <polygon id="path-7" points="5.73893542 16.5741627 5.73893542 4.14802635 3.95768542 4.14802635 2.19348087 5.43495816 2.19348087 7.32700362 3.95768542 6.03154907 3.95768542 16.5741627"></polygon>
    </defs>
    <g id="页面-2" stroke="none" stroke-width="1" fill="none" fill-rule="evenodd">
        <g id="星图达人热榜" transform="translate(-289.000000, -384.000000)">
            <g id="编组-13" transform="translate(240.000000, 88.000000)">
                <g id="表格" transform="translate(24.000000, 240.000000)">
                    <g id="编组-11" transform="translate(0.000000, 48.000000)">
                        <g id="编组-22" transform="translate(1.000000, 0.000000)">
                            <g id="icon_热搜榜1" transform="translate(24.000000, 8.000000)">
                                <rect id="bg" fill-opacity="0" fill="#FFFFFF" fill-rule="nonzero" x="0" y="0" width="32" height="32"></rect>
                                <g id="形状结合" transform="translate(4.363636, 8.000000)">
                                    <g id="蒙版" fill="#E3B259" fill-rule="nonzero">
                                        <path d="M1.18284015,0 L22.0898872,0 C22.625436,0 23.0595841,0.434148121 23.0595841,0.969696968 C23.0595841,1.03355344 23.0532765,1.09725377 23.0407533,1.15987019 L23.030303,1.21212121 C22.8893437,1.91691802 22.2705074,2.42424243 21.5517528,2.42424243 L1.72097443,2.42424243 C1.00221989,2.42424243 0.383383604,1.91691802 0.242424243,1.21212121 L0.231974039,1.15987019 C0.126944268,0.63472134 0.467518075,0.12386063 0.992666922,0.01883086 C1.05528334,0.00630757571 1.11898368,0 1.18284015,0 Z" id="path-1"></path>
                                    </g>
                                    <g id="Clipped">
                                        <mask id="mask-2" fill="white">
                                            <use xlink:href="#path-1"></use>
                                        </mask>
                                        <g id="path-1"></g>
                                        <path d="M1.45454546,1.45454546 C1.45454546,0.651222182 0.803323272,0 0,0 L0,0 L1.45454546,0 L1.45454546,1.45454546 Z" id="路径" fill="#FED777" fill-rule="nonzero" mask="url(#mask-2)"></path>
                                    </g>
                                    <g id="Clipped">
                                        <mask id="mask-4" fill="white">
                                            <use xlink:href="#path-3"></use>
                                        </mask>
                                        <g id="path-1"></g>
                                        <path d="M23.2727268,1.45454546 C23.2727268,0.651222182 22.6215047,0 21.8181814,0 L21.8181814,0 L23.2727268,0 L23.2727268,1.45454546 Z" id="路径" fill="#F5CB6D" fill-rule="nonzero" mask="url(#mask-4)" transform="translate(22.545454, 0.727273) scale(-1, 1) translate(-22.545454, -0.727273) "></path>
                                    </g>
                                </g>
                                <path d="M5.81818182,8 L26.1818182,8 L26.1818182,25.2124533 C26.1818182,25.9538955 25.7590852,26.6304536 25.0927004,26.9555194 L17.9032546,30.4625661 C16.8526042,30.9750785 15.6268451,30.9864114 14.5668982,30.4934128 L6.9396737,26.9458665 C6.25564712,26.6277147 5.81818182,25.9417729 5.81818182,25.1873771 L5.81818182,8 L5.81818182,8 Z" id="矩形" fill="url(#linearGradient-5)" fill-rule="nonzero"></path>
                                <path d="M16.0000852,4.54747351e-13 L15.999311,6.54484211 L13.3693214,6.54545454 C13.0511037,6.54545454 12.7698389,6.3385748 12.6750577,6.03480027 L11.6363636,2.70577826 L13.2863155,2.85822116 C13.934954,2.91815039 14.5578564,2.58968078 14.8747953,2.02058216 L16.0000852,4.54747351e-13 Z M15.9999148,4.54747351e-13 L17.1252047,2.02058216 C17.4421436,2.58968078 18.065046,2.91815039 18.7136845,2.85822116 L18.7136845,2.85822116 L20.3636364,2.70577826 L19.3249423,6.03480027 C19.2301611,6.3385748 18.9488963,6.54545454 18.6306786,6.54545454 L18.6306786,6.54545454 L16.000689,6.54484211 L15.9999148,4.54747351e-13 Z" id="形状结合" fill="url(#linearGradient-6)" fill-rule="nonzero"></path>
                                <g id="1" transform="translate(11.789474, 8.421053)" fill-rule="nonzero">
                                    <g>
                                        <use fill="#000000" xlink:href="#path-7"></use>
                                        <use fill="#FFFFFF" xlink:href="#path-7"></use>
                                    </g>
                                </g>
                            </g>
                        </g>
                    </g>
                </g>
            </g>
        </g>
    </g>
</svg>