<?xml version="1.0" encoding="UTF-8"?>
<svg width="32px" height="32px" viewBox="0 0 32 32" version="1.1" xmlns="http://www.w3.org/2000/svg" xmlns:xlink="http://www.w3.org/1999/xlink">
    <title>icon_热搜榜3</title>
    <defs>
        <path d="M1.18284015,0 L22.0898872,0 C22.625436,0 23.0595841,0.434148121 23.0595841,0.969696968 C23.0595841,1.03355344 23.0532765,1.09725377 23.0407533,1.15987019 L23.030303,1.21212121 C22.8893437,1.91691802 22.2705074,2.42424243 21.5517528,2.42424243 L1.72097443,2.42424243 C1.00221989,2.42424243 0.383383604,1.91691802 0.242424243,1.21212121 L0.231974039,1.15987019 C0.126944268,0.63472134 0.467518075,0.12386063 0.992666922,0.01883086 C1.05528334,0.00630757571 1.11898368,0 1.18284015,0 Z" id="path-1"></path>
        <path d="M1.18284015,0 L22.0898872,0 C22.625436,0 23.0595841,0.434148121 23.0595841,0.969696968 C23.0595841,1.03355344 23.0532765,1.09725377 23.0407533,1.15987019 L23.030303,1.21212121 C22.8893437,1.91691802 22.2705074,2.42424243 21.5517528,2.42424243 L1.72097443,2.42424243 C1.00221989,2.42424243 0.383383604,1.91691802 0.242424243,1.21212121 L0.231974039,1.15987019 C0.126944268,0.63472134 0.467518075,0.12386063 0.992666922,0.01883086 C1.05528334,0.00630757571 1.11898368,0 1.18284015,0 Z" id="path-3"></path>
        <linearGradient x1="50%" y1="0%" x2="88.28125%" y2="80.2521069%" id="linearGradient-5">
            <stop stop-color="#F0AE8F" offset="0%"></stop>
            <stop stop-color="#D98962" offset="100%"></stop>
        </linearGradient>
        <path d="M4.32416269,16.867823 C5.4207536,16.8564593 6.31848087,16.5070275 7.0173445,15.8195275 C7.72757178,15.149073 8.08836723,14.2314593 8.09973087,13.0666866 C8.09973087,12.5439593 7.98893541,12.0439593 7.7673445,11.5666866 C7.53438996,11.0894139 7.15654905,10.680323 6.63382178,10.3394139 C7.14518541,9.99282297 7.50029905,9.5979366 7.69916269,9.15475479 C7.86961723,8.71157297 7.9548445,8.2513457 7.9548445,7.77407297 C7.94348087,6.83089115 7.61961723,6.01270934 6.9832536,5.31952752 C6.31848087,4.60930025 5.4207536,4.24850479 4.29007178,4.23714116 C3.39802633,4.24850479 2.63098087,4.56668661 1.98893542,5.19168661 C1.33552633,5.82236843 0.96336724,6.59793661 0.872458149,7.51839115 L2.65370815,7.51839115 C2.76734451,7.00702752 2.98893542,6.62918661 3.31848087,6.38486843 C3.63098087,6.14055025 3.97757178,6.01839115 4.3582536,6.01839115 C4.88666269,6.02975479 5.31848087,6.19736843 5.65370814,6.52123206 C5.98893541,6.85645934 6.16223087,7.28543661 6.17359451,7.80816388 C6.17359451,8.32520933 6.00598087,8.74566388 5.6707536,9.06952751 C5.33552632,9.40475479 4.86393542,9.57236842 4.25598087,9.57236842 L3.64234451,9.57236842 L3.64234451,11.149073 L4.39234451,11.149073 C4.94348087,11.149073 5.39802632,11.3166866 5.75598087,11.6519139 C6.11961723,11.9985048 6.30711723,12.4871411 6.31848087,13.117823 C6.30711723,13.7371412 6.11961723,14.2144139 5.75598087,14.5496411 C5.39802632,14.9075957 4.95768542,15.086573 4.43495814,15.086573 C3.94632178,15.086573 3.55427633,14.9530502 3.25882178,14.6860048 C2.96904906,14.430323 2.74461724,14.0950957 2.58552633,13.680323 L0.804276331,13.680323 C0.997458149,14.7144139 1.4207536,15.5041866 2.07416269,16.0496411 C2.72757178,16.5950957 3.47757178,16.867823 4.32416269,16.867823 Z" id="path-6"></path>
    </defs>
    <g id="页面-2" stroke="none" stroke-width="1" fill="none" fill-rule="evenodd">
        <g id="星图达人热榜" transform="translate(-289.000000, -480.000000)">
            <g id="编组-13" transform="translate(240.000000, 88.000000)">
                <g id="表格" transform="translate(24.000000, 240.000000)">
                    <g id="编组-11备份-2" transform="translate(0.000000, 144.000000)">
                        <g id="编组-22" transform="translate(1.000000, 0.000000)">
                            <g id="icon_热搜榜3" transform="translate(24.000000, 8.000000)">
                                <rect id="bg" fill-opacity="0" fill="#FFFFFF" fill-rule="nonzero" x="0" y="0" width="32" height="32"></rect>
                                <g id="形状结合" transform="translate(4.363636, 4.708134)">
                                    <g id="蒙版" fill="#DA8A64" fill-rule="nonzero">
                                        <path d="M1.18284015,0 L22.0898872,0 C22.625436,0 23.0595841,0.434148121 23.0595841,0.969696968 C23.0595841,1.03355344 23.0532765,1.09725377 23.0407533,1.15987019 L23.030303,1.21212121 C22.8893437,1.91691802 22.2705074,2.42424243 21.5517528,2.42424243 L1.72097443,2.42424243 C1.00221989,2.42424243 0.383383604,1.91691802 0.242424243,1.21212121 L0.231974039,1.15987019 C0.126944268,0.63472134 0.467518075,0.12386063 0.992666922,0.01883086 C1.05528334,0.00630757571 1.11898368,0 1.18284015,0 Z" id="path-1"></path>
                                    </g>
                                    <g id="Clipped">
                                        <mask id="mask-2" fill="white">
                                            <use xlink:href="#path-1"></use>
                                        </mask>
                                        <g id="path-1"></g>
                                        <path d="M1.45454546,1.45454546 C1.45454546,0.651222182 0.803323272,0 0,0 L0,0 L1.45454546,0 L1.45454546,1.45454546 Z" id="路径" fill="#F0AE8F" fill-rule="nonzero" mask="url(#mask-2)"></path>
                                    </g>
                                    <g id="Clipped">
                                        <mask id="mask-4" fill="white">
                                            <use xlink:href="#path-3"></use>
                                        </mask>
                                        <g id="path-1"></g>
                                        <path d="M23.2727268,1.45454546 C23.2727268,0.651222182 22.6215047,0 21.8181814,0 L21.8181814,0 L23.2727268,0 L23.2727268,1.45454546 Z" id="路径" fill="#EAA584" fill-rule="nonzero" mask="url(#mask-4)" transform="translate(22.545454, 0.727273) scale(-1, 1) translate(-22.545454, -0.727273) "></path>
                                    </g>
                                </g>
                                <path d="M5.81818182,4.70813397 L26.1818182,4.70813397 L26.1818182,21.9205873 C26.1818182,22.6620295 25.7590852,23.3385876 25.0927004,23.6636534 L17.9032546,27.1707001 C16.8526042,27.6832125 15.6268451,27.6945453 14.5668982,27.2015468 L6.9396737,23.6540005 C6.25564712,23.3358486 5.81818182,22.6499069 5.81818182,21.8955111 L5.81818182,4.70813397 L5.81818182,4.70813397 Z" id="矩形" fill="url(#linearGradient-5)" fill-rule="nonzero"></path>
                                <g id="3" transform="translate(11.789474, 4.210526)" fill-rule="nonzero">
                                    <g>
                                        <use fill="#000000" xlink:href="#path-6"></use>
                                        <use fill="#FFFFFF" xlink:href="#path-6"></use>
                                    </g>
                                </g>
                            </g>
                        </g>
                    </g>
                </g>
            </g>
        </g>
    </g>
</svg>