<?xml version="1.0" encoding="UTF-8"?>
<svg width="32px" height="32px" viewBox="0 0 32 32" version="1.1" xmlns="http://www.w3.org/2000/svg" xmlns:xlink="http://www.w3.org/1999/xlink">
    <title>icon_热搜榜2</title>
    <defs>
        <path d="M1.18284015,0 L22.0898872,0 C22.625436,0 23.0595841,0.434148121 23.0595841,0.969696968 C23.0595841,1.03355344 23.0532765,1.09725377 23.0407533,1.15987019 L23.030303,1.21212121 C22.8893437,1.91691802 22.2705074,2.42424243 21.5517528,2.42424243 L1.72097443,2.42424243 C1.00221989,2.42424243 0.383383604,1.91691802 0.242424243,1.21212121 L0.231974039,1.15987019 C0.126944268,0.63472134 0.467518075,0.12386063 0.992666922,0.01883086 C1.05528334,0.00630757571 1.11898368,0 1.18284015,0 Z" id="path-1"></path>
        <path d="M1.18284015,0 L22.0898872,0 C22.625436,0 23.0595841,0.434148121 23.0595841,0.969696968 C23.0595841,1.03355344 23.0532765,1.09725377 23.0407533,1.15987019 L23.030303,1.21212121 C22.8893437,1.91691802 22.2705074,2.42424243 21.5517528,2.42424243 L1.72097443,2.42424243 C1.00221989,2.42424243 0.383383604,1.91691802 0.242424243,1.21212121 L0.231974039,1.15987019 C0.126944268,0.63472134 0.467518075,0.12386063 0.992666922,0.01883086 C1.05528334,0.00630757571 1.11898368,0 1.18284015,0 Z" id="path-3"></path>
        <linearGradient x1="50%" y1="0%" x2="88.28125%" y2="80.2521069%" id="linearGradient-5">
            <stop stop-color="#D1CDE5" offset="0%"></stop>
            <stop stop-color="#938FB3" offset="100%"></stop>
        </linearGradient>
        <path d="M8.21904905,16.7655502 L8.21904905,14.9843002 L3.47188996,14.9843002 L7.46904905,9.9729366 C7.96904905,9.33657297 8.21904905,8.60930024 8.21904905,7.79111843 C8.20768541,6.76839115 7.86393541,5.92464115 7.18779905,5.25986843 C6.52302632,4.58941388 5.65654905,4.24850479 4.58836723,4.23714116 C3.63382178,4.24850479 2.82984451,4.58373207 2.17643542,5.24282297 C1.52870815,5.91895934 1.18211724,6.77407297 1.13666269,7.80816388 L2.90938996,7.80816388 C2.97188996,7.23998206 3.1707536,6.79964115 3.50598087,6.48714115 C3.82984451,6.17464115 4.23609451,6.01839115 4.72473087,6.01839115 C5.27586723,6.02975479 5.7020036,6.20873206 6.00313996,6.55532297 C6.29291269,6.90191388 6.43779905,7.30816388 6.43779905,7.77407297 C6.43779905,7.95020933 6.41507178,8.13770933 6.36961723,8.33657297 C6.30143541,8.54680024 6.17359451,8.77407297 5.98609451,9.01839115 L1.13666269,15.086573 L1.13666269,16.7655502 L8.21904905,16.7655502 Z" id="path-6"></path>
    </defs>
    <g id="页面-2" stroke="none" stroke-width="1" fill="none" fill-rule="evenodd">
        <g id="星图达人热榜" transform="translate(-289.000000, -432.000000)">
            <g id="编组-13" transform="translate(240.000000, 88.000000)">
                <g id="表格" transform="translate(24.000000, 240.000000)">
                    <g id="编组-11备份" transform="translate(0.000000, 96.000000)">
                        <g id="编组-22" transform="translate(1.000000, 0.000000)">
                            <g id="icon_热搜榜2" transform="translate(24.000000, 8.000000)">
                                <rect id="bg" fill-opacity="0" fill="#FFFFFF" fill-rule="nonzero" x="0" y="0" width="32" height="32"></rect>
                                <g id="形状结合" transform="translate(4.363636, 4.708134)">
                                    <g id="蒙版" fill="#9793B6" fill-rule="nonzero">
                                        <path d="M1.18284015,0 L22.0898872,0 C22.625436,0 23.0595841,0.434148121 23.0595841,0.969696968 C23.0595841,1.03355344 23.0532765,1.09725377 23.0407533,1.15987019 L23.030303,1.21212121 C22.8893437,1.91691802 22.2705074,2.42424243 21.5517528,2.42424243 L1.72097443,2.42424243 C1.00221989,2.42424243 0.383383604,1.91691802 0.242424243,1.21212121 L0.231974039,1.15987019 C0.126944268,0.63472134 0.467518075,0.12386063 0.992666922,0.01883086 C1.05528334,0.00630757571 1.11898368,0 1.18284015,0 Z" id="path-1"></path>
                                    </g>
                                    <g id="Clipped">
                                        <mask id="mask-2" fill="white">
                                            <use xlink:href="#path-1"></use>
                                        </mask>
                                        <g id="path-1"></g>
                                        <path d="M1.45454546,1.45454546 C1.45454546,0.651222182 0.803323272,0 0,0 L0,0 L1.45454546,0 L1.45454546,1.45454546 Z" id="路径" fill="#D1CDE5" fill-rule="nonzero" mask="url(#mask-2)"></path>
                                    </g>
                                    <g id="Clipped">
                                        <mask id="mask-4" fill="white">
                                            <use xlink:href="#path-3"></use>
                                        </mask>
                                        <g id="path-1"></g>
                                        <path d="M23.2727268,1.45454546 C23.2727268,0.651222182 22.6215047,0 21.8181814,0 L21.8181814,0 L23.2727268,0 L23.2727268,1.45454546 Z" id="路径" fill="#C2BED9" fill-rule="nonzero" mask="url(#mask-4)" transform="translate(22.545454, 0.727273) scale(-1, 1) translate(-22.545454, -0.727273) "></path>
                                    </g>
                                </g>
                                <path d="M5.81818182,4.70813397 L26.1818182,4.70813397 L26.1818182,21.9205873 C26.1818182,22.6620295 25.7590852,23.3385876 25.0927004,23.6636534 L17.9032546,27.1707001 C16.8526042,27.6832125 15.6268451,27.6945453 14.5668982,27.2015468 L6.9396737,23.6540005 C6.25564712,23.3358486 5.81818182,22.6499069 5.81818182,21.8955111 L5.81818182,4.70813397 L5.81818182,4.70813397 Z" id="矩形" fill="url(#linearGradient-5)" fill-rule="nonzero"></path>
                                <g id="2" transform="translate(11.789474, 4.210526)" fill-rule="nonzero">
                                    <g>
                                        <use fill="#000000" xlink:href="#path-6"></use>
                                        <use fill="#FFFFFF" xlink:href="#path-6"></use>
                                    </g>
                                </g>
                            </g>
                        </g>
                    </g>
                </g>
            </g>
        </g>
    </g>
</svg>