<svg xmlns="http://www.w3.org/2000/svg" fill="none" viewBox="0 0 20 20" id="icon-colored-addon-microapp"><rect width="20" height="20" rx="2" fill="#08BAD1"></rect><path d="M11.264 12.744l-.708.708c-.37.37-.908.47-1.369.299l-.001.002c-.35-.144-.658-.324-1.634-1.3-.837-.837-1.09-1.183-1.234-1.485a.041.041 0 01-.005-.01l-.018-.04a.979.979 0 01-.041-.096c-.002-.001-.002-.004-.003-.005-.171-.462-.073-1 .298-1.372l.708-.708c.08-.08.08-.21 0-.291l-1.019-1.02a.206.206 0 00-.291 0l-.964.965a2.789 2.789 0 00-.614 3.017l.001.004c.002.001.002.002.003.005.205.501.47.946 1.87 2.346 1.406 1.407 1.847 1.665 2.352 1.872l.001-.002a2.788 2.788 0 003.012-.617l.965-.964c.08-.08.08-.21 0-.292l-1.02-1.019a.208.208 0 00-.29.003zM12.996 10.848l.709-.708c.37-.37.469-.908.298-1.368l.003-.001c-.144-.351-.324-.658-1.301-1.635-.836-.836-1.182-1.089-1.484-1.234l-.011-.005-.039-.018a.977.977 0 00-.096-.04l-.005-.003c-.462-.172-1.001-.074-1.372.297l-.709.708c-.08.08-.21.08-.29 0l-1.02-1.018a.206.206 0 010-.292l.965-.964a2.789 2.789 0 013.017-.614h.003l.005.003c.502.206.947.47 2.346 1.87 1.407 1.407 1.667 1.848 1.874 2.354h-.003a2.788 2.788 0 01-.616 3.013l-.965.964c-.08.08-.21.08-.29 0l-1.02-1.018a.205.205 0 01.001-.29z" fill="#fff"></path><path d="M7.96 10.466s0 .002 0 0c.085.198.41.531.681.803.272.272.606.597.803.68l-.001-.002c.09.035.198.017.27-.055l2.594-2.594a.25.25 0 00.056-.271v-.001l-.004-.006c-.088-.197-.408-.527-.677-.796-.27-.27-.598-.59-.795-.677l-.006-.003h-.001a.252.252 0 00-.27.055l-2.594 2.594a.254.254 0 00-.055.274z" fill="#fff"></path></svg>