<svg xmlns="http://www.w3.org/2000/svg" fill="none" viewBox="0 0 20 20" id="icon-colored-addon-cart"><rect width="20" height="20" rx="2" fill="#FEB814"></rect><path fill-rule="evenodd" clip-rule="evenodd" d="M7.403 5.138c-.54 0-.986-.428-.98-.967.002-.134.006-.257.013-.351-.03-1.351-.777-1.34-1.957-1.321l-.23.003-.656.001c-.603 0-1.093.489-1.093 1.092 0 .608.496 1.1 1.103 1.102l.209.002a.479.479 0 01.483.435l.72 6.876a1.156 1.156 0 001.15 1.036h8.14a.879.879 0 100-1.757H7.498a.188.188 0 01-.188-.189c0-.624.506-1.13 1.13-1.13h6.04a1 1 0 00.94-.659l1.026-2.833a1 1 0 00-.94-1.34H7.403zM6.873 17c.725 0 1.312-.59 1.312-1.318 0-.728-.587-1.318-1.312-1.318-.724 0-1.312.59-1.312 1.318 0 .728.588 1.318 1.312 1.318zm7.873-1.318c0 .728-.588 1.318-1.313 1.318-.724 0-1.312-.59-1.312-1.318 0-.728.588-1.318 1.313-1.318.724 0 1.312.59 1.312 1.318z" fill="#fff"></path></svg>