<?xml version="1.0" standalone="no"?><!DOCTYPE svg PUBLIC "-//W3C//DTD SVG 1.1//EN" "http://www.w3.org/Graphics/SVG/1.1/DTD/svg11.dtd"><svg class="icon" width="200px" height="200.00px" viewBox="0 0 1024 1024" version="1.1" xmlns="http://www.w3.org/2000/svg"><path fill="#333333" d="M759 64H267c-40.869 0-74 33.131-74 74v748c0 40.869 33.131 74 74 74h492c40.869 0 74-33.131 74-74V138c0-40.869-33.131-74-74-74zM544 896h-64c-17.673 0-32-14.327-32-32s14.327-32 32-32h64c17.673 0 32 14.327 32 32s-14.327 32-32 32z m224-146c0 9.941-8.059 18-18 18H274c-9.941 0-18-8.059-18-18V146c0-9.941 8.059-18 18-18h476c9.941 0 18 8.059 18 18v604z" /></svg>