<svg width="1em" height="1em" viewBox="0 0 22 22" xmlns="http://www.w3.org/2000/svg" class="icon"><g fill="none" fill-rule="evenodd"><rect fill="#F5F7F9" width="22" height="22" rx="4"></rect><path d="M7.364 4.455C7.364 3.65 8.014 3 8.818 3h4.364c.803 0 1.454.651 1.454 1.455v2.181h2.909c.804 0 1.455.652 1.455 1.455v2.182H3V8.09c0-.803.651-1.455 1.455-1.455h2.909V4.455zm1.454 2.181h4.364V4.818c0-.2-.163-.363-.364-.363H9.182c-.201 0-.364.162-.364.363v1.818zm4.364 5.455c0-.2.163-.364.363-.364H19v5.091c0 .804-.651 1.455-1.455 1.455H4.455A1.455 1.455 0 013 16.818v-5.091h5.455c.2 0 .363.163.363.364v1.09c0 .402.326.728.727.728h2.91a.727.727 0 00.727-.727V12.09z" fill="#0075FF"></path></g></svg>